<?xml version="1.0" standalone="no"?>
<!DOCTYPE svg PUBLIC "-//W3C//DTD SVG 1.0//EN" "http://www.w3.org/TR/2001/REC-SVG-20010904/DTD/svg10.dtd">
<svg xmlns="http://www.w3.org/2000/svg" xmlns:xlink="http://www.w3.org/1999/xlink" id="body_1" width="1024" height="768">

<g transform="matrix(1.6879122 0 0 1.6879122 128.00003 -0)">
	<g>
        <path d="M246.4 204.35L246.4 203.68501C 246.26399 203.90802 246.07599 204.13101 245.958 204.35L245.958 204.35L246.4 204.35z" stroke="none" fill="#000000" fill-rule="nonzero" />
        <path d="M0 0L0 455L455 455L455 0L0 0zM141.522 378.002L74.016 378.002L74.016 174.906L141.522 174.906L141.522 378.002zM107.769 147.186L107.323 147.186C 84.678 147.186 70 131.585 70 112.085C 70 92.157 85.107 76.998 108.211 76.998C 131.31999 76.998 145.521 92.157 145.963 112.08501C 145.963 131.585 131.32 147.186 107.769 147.186zM385 378.002L317.476 378.002L317.476 269.345C 317.476 242.054 307.72 223.425 283.281 223.425C 264.617 223.425 253.526 235.968 248.64001 248.11801C 246.86401 252.45801 246.40001 258.491 246.40001 264.57703L246.40001 264.57703L246.40001 378.00302L178.863 378.00302C 178.863 378.00302 179.768 193.96002 178.863 174.90703L178.863 174.90703L246.4 174.90703L246.4 203.68604C 255.37299 189.87903 271.386 170.13904 307.25598 170.13904C 351.693 170.13904 385 199.15904 385 261.53705L385 261.53705L385 378.002z" stroke="none" fill="#000000" fill-rule="nonzero" />
	</g>
	<g>
	</g>
	<g>
	</g>
	<g>
	</g>
	<g>
	</g>
	<g>
	</g>
	<g>
	</g>
	<g>
	</g>
	<g>
	</g>
	<g>
	</g>
	<g>
	</g>
	<g>
	</g>
	<g>
	</g>
	<g>
	</g>
	<g>
	</g>
	<g>
	</g>
</g>
</svg>