<?xml version="1.0" standalone="no"?>
<!DOCTYPE svg PUBLIC "-//W3C//DTD SVG 1.0//EN" "http://www.w3.org/TR/2001/REC-SVG-20010904/DTD/svg10.dtd">
<svg xmlns="http://www.w3.org/2000/svg" xmlns:xlink="http://www.w3.org/1999/xlink" id="body_1" width="1024" height="768">

<g transform="matrix(2.4774194 0 0 2.4774194 128.00003 -0)">
	<g>
        <path d="M302.973 57.388C 298.103 59.548 293.09598 61.371002 287.97998 62.851C 294.037 56.001003 298.65497 47.941 301.47397 39.121002C 302.10596 37.144 301.45096 34.980003 299.82596 33.687004C 298.20297 32.393005 295.94797 32.238003 294.16095 33.297005C 283.29596 39.741005 271.57394 44.372005 259.28296 47.080006C 246.90196 34.982006 230.08595 28.097006 212.70197 28.097006C 176.00696 28.097006 146.15295 57.950005 146.15295 94.644005C 146.15295 97.534004 146.33595 100.408005 146.69795 103.242004C 101.163 99.244 58.83 76.863 29.76 41.204C 28.724 39.933 27.128 39.247997 25.494 39.378998C 23.859 39.506996 22.39 40.428997 21.564 41.845997C 15.667999 51.962997 12.551 63.533997 12.551 75.30699C 12.551 91.341995 18.276 106.55599 28.389 118.44399C 25.314 117.37899 22.33 116.04799 19.482 114.466995C 17.953001 113.616 16.087 113.629 14.568001 114.49999C 13.048 115.370995 12.095001 116.97299 12.055 118.72399C 12.048 119.01899 12.048 119.31399 12.048 119.61299C 12.048 143.54799 24.93 165.09698 44.625 176.842C 42.933 176.67299 41.242 176.428 39.562 176.107C 37.83 175.776 36.049 176.383 34.881 177.704C 33.711002 179.024 33.324 180.864 33.863 182.54399C 41.153 205.30399 59.921997 222.04498 82.612 227.14899C 63.793 238.93599 42.272 245.10999 19.68 245.10999C 14.966 245.10999 10.225 244.833 5.585 244.28398C 3.28 244.00998 1.0760002 245.37099 0.2909999 247.56299C -0.49400014 249.75598 0.33799988 252.20099 2.2989998 253.458C 31.322 272.067 64.881 281.90298 99.34599 281.90298C 167.09999 281.90298 209.48499 249.95299 233.11 223.15C 262.57 189.72899 279.466 145.492 279.466 101.783C 279.466 99.957 279.438 98.113 279.382 96.274994C 291.00497 87.51799 301.012 76.92 309.155 64.739C 310.392 62.889 310.258 60.444 308.825 58.740997C 307.394 57.037 305.009 56.486 302.973 57.388z" stroke="none" fill="#000000" fill-rule="nonzero" />
	</g>
	<g>
	</g>
	<g>
	</g>
	<g>
	</g>
	<g>
	</g>
	<g>
	</g>
	<g>
	</g>
	<g>
	</g>
	<g>
	</g>
	<g>
	</g>
	<g>
	</g>
	<g>
	</g>
	<g>
	</g>
	<g>
	</g>
	<g>
	</g>
	<g>
	</g>
</g>
</svg>